# xmcd CD database file generated by OrangeCD 5.2
#
# Track frame offsets:
#	150
#	12260
#	21422
#	38115
#	51430
#	61747
#	76795
#	86647
#	100735
#	110757
#	122790
#	139302
#
# Disc length: 2044 seconds
#
# Revision: 2
# Processed by: cddbd v1.5.1PL0 Copyright (c) Steve Scherf et al.
# Submitted via: OrangeCD 5.2
#
DISCID=9d07fa0c
DTITLE=Jake And The Spitfires - My Private Rodeo
DYEAR=1993
DGENRE=Country
TTITLE0=Happy Hour
TTITLE1=From A Jack To A King
TTITLE2=This Burnin' Love
TTITLE3=Lookin' For My Runaway Girl
TTITLE4=I Saw The Light
TTITLE5=I'm Tellin' You Goodbye
TTITLE6=Please Give Me Love
TTITLE7=You Better Move On
TTITLE8=Shape Up Pretty Baby
TTITLE9=Too Much Honky-Tonkin'
TTITLE10=Congratulations Darling
TTITLE11=My Private Rodeo
EXTD=
EXTT0=
EXTT1=
EXTT2=
EXTT3=
EXTT4=
EXTT5=
EXTT6=
EXTT7=
EXTT8=
EXTT9=
EXTT10=
EXTT11=
PLAYORDER=
